<svg width="66" height="61" viewBox="0 0 66 61" fill="none" xmlns="http://www.w3.org/2000/svg">
<path d="M63.6063 30.0435C62.9826 29.1472 62.1872 28.3835 61.2663 27.7966C60.3453 27.2098 59.3171 26.8115 58.2412 26.6247L54.1883 25.9122L46.8626 9.21597C46.4706 8.32046 45.8632 7.5358 45.0945 6.93185C44.3259 6.3279 43.4198 5.92341 42.457 5.75441L12.2137 0.418969C10.6634 0.14788 9.06881 0.50252 7.77953 1.40515C6.49024 2.30779 5.61142 3.68477 5.3357 5.23428L0.181954 34.4753C0.100601 34.936 0.110801 35.4083 0.211972 35.8651C0.313143 36.3219 0.503303 36.7543 0.771593 37.1376C1.03988 37.5209 1.38105 37.8476 1.77561 38.099C2.17017 38.3505 2.61039 38.5217 3.07114 38.603L4.0532 38.7752C4.28064 38.8151 4.51478 38.7878 4.72696 38.6967C4.93914 38.6056 5.12014 38.4546 5.24783 38.2622C6.39696 36.53 8.02661 35.1708 9.93693 34.3512C11.8473 33.5317 13.9552 33.2874 16.0024 33.6483C18.0495 34.0092 19.9468 34.9597 21.4617 36.3832C22.9765 37.8067 24.043 39.6413 24.5305 41.662C24.5848 41.8869 24.7037 42.091 24.8725 42.2492C25.0413 42.4074 25.2526 42.5129 25.4805 42.5527L29.6925 43.296L26.5373 50.6585C26.474 50.8064 26.4413 50.9656 26.4413 51.1264C26.4413 51.2873 26.474 51.4464 26.5373 51.5943L29.3873 58.2502H24.0626V60.6252H38.3126V58.2502H32.9878L35.8378 51.5931C35.9012 51.4453 35.9339 51.2861 35.9339 51.1252C35.9339 50.9644 35.9012 50.8052 35.8378 50.6573L32.9273 43.8672L36.795 44.5488C37.0225 44.5902 37.2571 44.5635 37.4695 44.4723C37.682 44.3811 37.8629 44.2293 37.9896 44.0358C39.1385 42.3035 40.7681 40.9442 42.6783 40.1245C44.5886 39.3049 46.6966 39.0606 48.7437 39.4215C50.7908 39.7825 52.688 40.733 54.2028 42.1566C55.7175 43.5802 56.7839 45.4149 57.271 47.4357C57.3252 47.6607 57.444 47.8651 57.6128 48.0235C57.7816 48.1819 57.993 48.2876 58.221 48.3275L59.2031 48.5008C59.4078 48.5362 59.6152 48.554 59.823 48.5543C60.6602 48.5539 61.4706 48.2586 62.1118 47.7203C62.7531 47.182 63.1842 46.435 63.3297 45.6105L64.9791 36.2553C65.1725 35.1806 65.1508 34.0782 64.9152 33.0119C64.6796 31.9456 64.2347 30.9367 63.6063 30.0435ZM29.4253 49.9377L31.1876 45.8278L32.9498 49.9377H29.4253ZM32.9498 52.3127L31.1876 56.4227L29.4253 52.3127H32.9498ZM44.6859 10.1707L51.3751 25.4147L36.0183 22.7072L38.6985 7.50715L42.0437 8.1009C42.6206 8.20136 43.1637 8.44291 43.6247 8.80403C44.0857 9.16515 44.4502 9.63464 44.6859 10.1707ZM7.67508 5.65109C7.75624 5.19024 7.9274 4.74988 8.17879 4.35519C8.43017 3.9605 8.75686 3.6192 9.14017 3.35079C9.52349 3.08238 9.95594 2.89211 10.4128 2.79087C10.8697 2.68962 11.342 2.67938 11.8028 2.76072L36.3627 7.09153L33.6813 22.2951L5.61239 17.3456L7.67508 5.65109ZM4.37502 24.3625L5.5447 24.5692L5.13383 26.9073L3.96295 26.7007L4.37502 24.3625ZM3.72427 36.3064L3.48677 36.2637C3.17757 36.2072 2.90305 36.0312 2.7226 35.7739C2.54214 35.5165 2.47027 35.1985 2.52252 34.8885L2.72914 33.7188L5.71333 34.2437C4.97618 34.8557 4.30909 35.5475 3.72427 36.3064ZM16.4151 31.3082C14.6616 31.0005 12.8638 31.0546 11.132 31.4673C9.40027 31.8801 7.77124 32.6426 6.34508 33.7082L6.6467 31.9982L3.13764 31.3795L3.55089 29.0401L4.71939 29.2467C4.85748 29.2703 4.99731 29.2822 5.13739 29.2823C5.69507 29.2813 6.23461 29.0841 6.66146 28.7252C7.08832 28.3663 7.37526 27.8686 7.47202 27.3194L7.88289 24.9824C7.93725 24.6753 7.93059 24.3604 7.86327 24.0559C7.79595 23.7513 7.6693 23.463 7.49055 23.2074C7.3118 22.9518 7.08445 22.7339 6.82149 22.5662C6.55852 22.3984 6.26509 22.2841 5.95795 22.2298L4.78708 22.0232L5.20033 19.685L33.2681 24.6345L30.3813 41.0065L26.63 40.3439C25.9249 38.043 24.5978 35.9816 22.7953 34.3872C20.9928 32.7927 18.7848 31.7272 16.4151 31.3082ZM49.1604 37.0818C46.7899 36.6637 44.3498 36.9092 42.1101 37.7913C39.8704 38.6734 37.9183 40.1577 36.4696 42.08L32.7195 41.4186L35.6063 25.0465L57.8268 28.9653C58.5952 29.0987 59.3296 29.3831 59.9873 29.8022C60.6451 30.2213 61.2132 30.7667 61.6588 31.4068C61.8097 31.6367 61.9446 31.8768 62.0626 32.1252L58.582 31.5113C57.9628 31.4021 57.3255 31.5429 56.81 31.9029C56.2944 32.2628 55.9426 32.8125 55.8318 33.4315L55.4185 35.7697C55.3091 36.3899 55.4506 37.0283 55.8118 37.5443C56.173 38.0603 56.7244 38.4116 57.3447 38.5211L62.0234 39.3523L61.6113 41.6905L58.1035 41.0718L57.8018 42.7818C56.8267 41.2923 55.5569 40.0182 54.0707 39.0379C52.5846 38.0577 50.9135 37.392 49.1604 37.0818ZM62.6421 35.8421L62.4366 37.0118L57.7579 36.1805L58.1711 33.8423L62.73 34.6463C62.7406 35.0468 62.7111 35.4474 62.6421 35.8421ZM59.6163 46.1615L59.3788 46.1187C59.0905 45.2076 58.7018 44.3314 58.2198 43.5062L61.204 44.0323L60.9986 45.2008C60.9712 45.3548 60.9138 45.5019 60.8294 45.6336C60.7451 45.7653 60.6355 45.8791 60.5071 45.9683C60.3786 46.0576 60.2338 46.1206 60.081 46.1538C59.9281 46.1869 59.7702 46.1895 59.6163 46.1615Z" fill="white"/>
</svg>
