<svg width="72" height="76" viewBox="0 0 72 76" fill="none" xmlns="http://www.w3.org/2000/svg">
<path d="M69.0001 9.19026L46.7378 0.280677C44.5737 -0.522485 42.3025 0.560167 41.5095 2.55431L39.954 6.43366C39.7727 6.92142 39.6805 7.41397 39.6805 7.90053C39.6805 8.70848 39.9331 9.49189 40.3766 10.1538L36.7929 18.3925H35.2093L31.628 10.1574C32.0738 9.49429 32.3264 8.70968 32.3264 7.90053C32.3264 7.41517 32.2342 6.92142 32.0421 6.40194L30.4992 2.5567C29.7033 0.556576 27.5338 -0.566174 25.2398 0.290252L3.00922 9.18906C1.45975 9.8043 0.458496 11.2814 0.458496 12.9505C0.458496 13.4359 0.550662 13.9296 0.742774 14.4497L2.28626 18.2944C2.86798 19.7582 4.21995 20.72 5.7742 20.8241L16.9748 46.5833H13.9411C11.914 46.5833 10.264 48.2334 10.264 50.2604C10.264 51.2545 10.6524 52.1785 11.3353 52.8441C11.5633 53.0787 11.8242 53.2624 12.0989 53.424C10.9912 54.5677 10.3011 56.1207 10.3011 57.8354C10.3011 58.3106 10.3514 58.763 10.4525 59.2155L14.1841 75.9999H52.9046L58.2251 53.825C63.0165 53.1702 66.6457 49.0838 66.6457 44.132C66.6457 39.9318 63.9651 36.2548 60.1163 34.898L66.2327 20.8241C67.787 20.72 69.1402 19.7582 69.7213 18.2979L71.2761 14.4192C71.4563 13.9296 71.5484 13.4371 71.5484 12.9505C71.5484 11.2814 70.5472 9.8043 69.0001 9.19026ZM40.367 16.3259L44.1075 17.9035L45.0603 15.6449L41.3449 14.0769L42.3725 11.7176L63.7909 20.2897L62.5988 23.0343L47.3375 16.6114L46.3877 18.8719L61.6214 25.2822L60.4179 28.0508L45.7916 21.8978C45.7001 19.9515 44.1003 18.3925 42.1319 18.3925H39.4675L40.367 16.3259ZM27.447 48.6044C28.8175 46.5714 31.0995 45.3577 33.5521 45.3577C36.0047 45.3577 38.2873 46.5714 39.6572 48.6044C40.4747 49.8145 40.9062 51.2347 40.9062 52.7118C40.9062 54.1888 40.4747 55.6096 39.6572 56.8192C38.2873 58.8528 36.0047 60.0659 33.5521 60.0659C29.4962 60.0659 26.198 56.7677 26.198 52.7118C26.198 51.2347 26.6295 49.8145 27.447 48.6044ZM29.875 42.9063C28.4399 42.9063 27.1699 42.1013 26.5559 40.7942C26.5032 40.6853 26.4786 40.568 26.4368 40.4549H40.6782C40.1743 41.8853 38.8277 42.9063 37.2304 42.9063H29.875ZM16.8754 40.2071L21.5944 38.2256C22.0098 39.1915 22.8345 39.9306 23.8435 40.2592C23.8669 40.3927 23.889 40.5273 23.9207 40.6584L18.1328 43.099L16.8754 40.2071ZM42.1319 20.8439C42.8076 20.8439 43.3576 21.3945 43.3576 22.0696V28.198H32.3264C30.2994 28.198 28.6493 29.848 28.6493 31.8751C28.6493 32.8692 29.0378 33.7932 29.7206 34.4587C30.4083 35.1637 31.3323 35.5521 32.3264 35.5521H43.3576V36.7778C43.3576 37.4535 42.8076 38.0035 42.1319 38.0035H24.9723C24.2972 38.0035 23.7466 37.4535 23.7466 36.7778V30.5758C23.7466 30.0024 23.8777 29.4411 24.1314 28.9419L27.1579 22.8775C27.7803 21.6417 29.0737 20.8439 30.4514 20.8439H42.1319ZM47.3549 46.5833H41.1905C40.6884 45.9573 40.118 45.4031 39.4908 44.925C41.1708 44.263 42.4653 42.8817 43.0243 41.188L47.1167 42.9099C47.064 43.3132 47.0347 43.719 47.0347 44.132C47.0347 44.9704 47.1502 45.788 47.3549 46.5833ZM43.3576 33.1008H32.3264C31.999 33.1008 31.6974 32.9757 31.4538 32.7261C31.2258 32.5041 31.1007 32.2024 31.1007 31.8751C31.1007 31.2 31.6513 30.6494 32.3264 30.6494H43.3576V33.1008ZM21.9434 27.8389C21.6214 28.4727 21.4155 29.1723 21.3359 29.8923L13.7717 33.069L12.5682 30.3005L22.8824 25.9573L21.9434 27.8389ZM21.2952 32.5675V35.6946L15.8987 37.961L14.749 35.3169L21.2952 32.5675ZM42.6197 49.0347H48.3669C48.9295 50.0019 49.6452 50.8637 50.4939 51.5807L48.644 56.3889H42.6197C43.0907 55.2284 43.3576 53.9901 43.3576 52.7118C43.3576 51.4334 43.0907 50.1958 42.6197 49.0347ZM47.7481 40.5165L44.8101 39.2807C45.4254 38.6224 45.809 37.7462 45.809 36.7778V36.2841L49.3891 37.7941C48.6978 38.6056 48.1413 39.5225 47.7481 40.5165ZM51.4323 35.995L45.809 33.6232V30.4974L55.2213 34.4587C53.8544 34.6831 52.582 35.2224 51.4323 35.995ZM58.2376 33.069L45.809 27.8377V24.5652L59.4412 30.3017L58.2376 33.069ZM30.4514 18.3925C28.1556 18.3925 26.0029 19.7199 24.9651 21.7829L24.5629 22.5896L11.5902 28.0508L10.3867 25.2834L31.6411 16.3259L32.5407 18.3925H30.4514ZM4.56228 17.3841L3.03017 13.5658C2.95177 13.3551 2.90987 13.142 2.90987 12.9505C2.90987 12.291 3.30487 11.7087 3.91772 11.4651L26.122 2.57884C27.061 2.23053 27.909 2.6758 28.2226 3.46759L29.7547 7.2853C29.8331 7.49596 29.875 7.70962 29.875 7.90053C29.875 8.3458 29.6961 8.75995 29.3627 9.07116C29.2281 9.19984 29.0503 9.31295 28.8702 9.38596L25.7323 10.6362L26.639 12.9128L29.6374 11.7188L30.6692 14.0918L9.40878 23.0367L8.21601 20.2927L24.2014 13.8931L23.2905 11.6183L6.64798 18.2788C6.55163 18.3165 6.44749 18.3446 6.40081 18.356C5.62877 18.4625 4.84895 18.1058 4.56228 17.3841ZM19.1102 45.3481L24.9699 42.8769C25.6515 43.8046 26.5654 44.506 27.6188 44.9202C26.9898 45.3995 26.4176 45.9549 25.9137 46.5833H19.647L19.1102 45.3481ZM50.9703 73.5485H16.1501L12.8441 58.681C12.7818 58.4039 12.7507 58.1268 12.7507 57.8354C12.7507 55.6868 14.5001 53.9375 16.6486 53.9375C18.2298 53.9375 19.6416 54.8777 20.2485 56.3338L25.3804 68.6457H32.552C33.0595 70.0689 34.4079 71.0971 36.0035 71.0971C38.0305 71.0971 39.6805 69.4477 39.6805 67.4201C39.6805 67.268 39.6536 67.1226 39.6351 66.9754L43.9058 64.84L42.8088 62.6472L38.5482 64.7778C37.8875 64.1404 36.9928 63.743 36.0035 63.743C34.4079 63.743 33.0595 64.7712 32.552 66.1944H27.0143L22.5125 55.39C21.5244 53.0182 19.2239 51.4861 16.6498 51.4861H13.9411C13.6137 51.4861 13.3121 51.361 13.0685 51.1115C12.8405 50.8894 12.7154 50.5878 12.7154 50.2604C12.7154 49.5853 13.266 49.0347 13.9411 49.0347H24.4845C24.0141 50.1958 23.7466 51.4334 23.7466 52.7118C23.7466 58.1185 28.1454 62.5173 33.5521 62.5173C36.5451 62.5173 39.3376 61.1498 41.1905 58.8402H50.3281L56.2178 43.5239C56.3632 43.1493 56.7139 42.9063 57.1101 42.9063C57.6368 42.9063 58.0659 43.3354 58.0659 43.8746C58.0659 43.9189 58.0611 43.9949 58.0389 44.0907L50.9703 73.5485ZM34.7778 67.4201C34.7778 66.745 35.3284 66.1944 36.0035 66.1944C36.6792 66.1944 37.2292 66.745 37.2292 67.4201C37.2292 68.0957 36.6792 68.6457 36.0035 68.6457C35.3284 68.6457 34.7778 68.0957 34.7778 67.4201ZM64.1943 44.132C64.1943 47.5014 61.9524 50.3316 58.8553 51.1934L60.4251 44.6502C60.4867 44.3833 60.5172 44.1224 60.5172 43.8626C60.5172 41.9834 58.9887 40.4549 57.1101 40.4549C55.6977 40.4549 54.4516 41.3095 53.9304 42.6382L51.4437 49.1071C50.941 48.5667 50.5106 47.9587 50.1899 47.286C49.7225 46.2967 49.486 45.235 49.486 44.132C49.486 43.5508 49.5549 42.9883 49.6979 42.4042C50.0803 40.793 51.0062 39.3519 52.3175 38.3405C53.6108 37.3183 55.1746 36.7778 56.8402 36.7778C57.3393 36.7778 57.79 36.8221 58.24 36.9155C61.6903 37.5768 64.1943 40.6129 64.1943 44.132ZM68.9893 13.5364L67.4435 17.3888C67.2011 17.9981 66.6188 18.3925 65.9592 18.3925C65.8443 18.3925 65.7204 18.3716 65.6714 18.3668C65.5601 18.3446 65.4553 18.3153 65.3733 18.2848L43.1457 9.38896C42.9578 9.31295 42.7801 9.19984 42.6442 9.07116L42.6382 9.06518C42.3109 8.75995 42.1319 8.3458 42.1319 7.90053C42.1319 7.70962 42.1738 7.49596 42.2396 7.31462L43.7855 3.4628C44.0279 2.85355 44.6102 2.45855 45.2698 2.45855C45.4607 2.45855 45.6743 2.50044 45.8569 2.56627L68.0934 11.4663C68.7027 11.7087 69.0971 12.291 69.0971 12.9505C69.0971 13.142 69.0552 13.3551 68.9893 13.5364Z" fill="white"/>
</svg>
